<svg version="1.1" id="Layer_1" xmlns="http://www.w3.org/2000/svg" xmlns:xlink="http://www.w3.org/1999/xlink" x="0px" y="0px"
	 width="100%" viewBox="0 0 1024 1024" enable-background="new 0 0 1024 1024" xml:space="preserve">
<path fill="#000000" opacity="1.000000" stroke="none" 
	d="
M665.860352,67.988647 
	C727.044250,88.869720 781.930786,119.625000 829.831116,162.876465 
	C872.390076,201.304932 906.815063,245.890076 933.530579,296.397278 
	C956.799255,340.388000 973.083557,386.848450 980.497986,436.295959 
	C984.856140,465.360504 986.896240,494.528351 986.071167,523.858765 
	C983.778259,605.364929 963.716797,682.061157 922.419373,752.672424 
	C899.082092,792.574951 871.070862,828.953186 836.671265,860.075562 
	C772.626770,918.018372 698.682373,956.993591 614.407166,976.568115 
	C573.352051,986.104004 531.839233,989.147217 489.990570,986.990784 
	C442.898010,984.564148 397.098816,974.933044 352.743256,958.732849 
	C276.434509,930.862183 211.012299,886.871094 157.172134,825.990784 
	C102.303658,763.947754 67.384056,691.978638 50.867046,610.876465 
	C42.641827,570.488831 40.303871,529.713745 41.922394,488.682343 
	C43.183434,456.713409 47.040783,424.978760 55.795212,394.129791 
	C67.395180,353.253693 84.571136,314.672729 105.120705,277.499176 
	C125.055527,241.437698 151.349167,210.200714 179.377167,180.533813 
	C207.455719,150.813385 240.876587,127.518982 276.089539,106.874123 
	C315.309906,83.879761 357.167633,67.295097 401.243622,56.436371 
	C423.374084,50.984215 446.077515,48.623367 468.643219,45.548981 
	C492.878876,42.247078 517.207764,42.917835 541.434937,43.973957 
	C580.986023,45.698090 619.639343,53.278568 657.377808,65.341240 
	C660.072510,66.202560 662.781982,67.017838 665.860352,67.988647 
M262.631409,879.804871 
	C282.757568,893.550415 303.937897,905.435852 325.955566,915.869202 
	C374.281494,938.768921 425.153656,952.234131 478.395691,956.530640 
	C499.977600,958.272217 521.629089,958.320435 543.283325,956.912048 
	C570.911377,955.115051 598.080566,950.617432 624.833069,943.646667 
	C691.910217,926.168945 751.665283,894.393677 804.237549,849.508667 
	C849.125183,811.184692 884.163574,765.043030 910.439148,712.037109 
	C940.617371,651.158569 955.722900,586.913879 956.831665,519.111328 
	C957.400452,484.325165 954.783020,449.865173 946.619385,416.053955 
	C936.406799,373.756439 920.495911,333.614441 899.123108,295.626801 
	C873.683472,250.411041 841.309692,210.878555 801.639709,177.580276 
	C771.796509,152.530411 738.706360,132.083038 703.879395,114.750664 
	C674.692566,100.225189 643.418213,91.363419 611.642944,84.331589 
	C587.253052,78.934143 562.648132,74.696846 537.694031,73.547882 
	C513.398132,72.429230 489.087891,73.242882 464.887390,76.156090 
	C429.748138,80.386070 395.420837,88.144234 361.952698,99.660606 
	C307.628510,118.353577 259.471039,147.759583 216.650925,185.630096 
	C180.276901,217.799667 151.523987,256.323273 127.912796,298.724487 
	C95.691391,356.587921 75.866653,418.378571 71.747231,484.506775 
	C69.494057,520.676575 70.770187,556.943604 77.082260,592.955444 
	C87.111359,650.173889 107.854477,703.173645 138.808578,752.040344 
	C171.021423,802.894104 212.221970,845.405090 262.631409,879.804871 
z"/>
<path fill="#000000" opacity="1.000000" stroke="none" 
	d="
M237.491318,457.605591 
	C244.973816,427.312988 254.711319,398.094208 262.916901,368.439148 
	C266.019012,357.228119 268.969055,345.962341 271.523773,334.616913 
	C273.199585,327.174896 277.543274,322.733643 284.414062,320.031372 
	C295.855621,315.531372 307.854065,313.738708 319.952637,312.717926 
	C406.905029,305.381531 494.050446,307.665405 581.138794,308.035431 
	C618.925171,308.195953 656.731812,309.558624 694.458313,311.919250 
	C709.495056,312.860138 724.517639,314.485321 739.198792,318.815948 
	C748.443115,321.542877 753.195251,326.969299 754.967773,335.947876 
	C759.870117,360.781555 767.597290,384.870911 774.612671,409.134155 
	C783.434021,439.643890 791.615723,470.299957 797.742615,501.468445 
	C801.397095,520.059570 804.102783,538.811646 804.973572,557.758179 
	C805.239746,563.548889 804.747559,569.414673 804.127502,575.195068 
	C803.454956,581.465271 800.738525,586.628357 796.003906,591.235413 
	C771.649536,614.933533 747.053772,638.416260 725.618347,664.919128 
	C692.282166,706.136230 662.155334,749.519897 641.878418,798.708313 
	C633.746521,818.434875 619.855957,828.061768 600.650330,833.163574 
	C579.161804,838.871887 557.387146,841.711670 535.158325,842.564636 
	C517.310242,843.249390 499.516479,843.310364 481.729889,842.224915 
	C458.909668,840.832336 436.466217,837.137695 414.946014,829.058411 
	C403.429596,824.734802 394.730652,817.594849 389.685089,805.775452 
	C374.456543,770.101929 355.168335,736.663147 332.458008,705.226196 
	C304.650513,666.733337 273.439514,631.223694 237.532440,600.106689 
	C225.737793,589.885437 220.130722,578.197876 220.561066,562.681152 
	C221.042725,545.314087 223.426605,528.248352 226.327576,511.192017 
	C229.366211,493.326263 233.070984,475.603973 237.491318,457.605591 
M255.343704,480.621490 
	C251.023300,498.541321 247.168228,516.552002 244.483704,534.802490 
	C243.789474,539.522034 244.927307,542.632690 249.326248,545.524841 
	C303.264954,580.987549 347.572815,626.387817 383.262909,679.828125 
	C409.073669,718.475708 428.824341,760.380554 441.215851,805.416626 
	C442.800903,811.177368 445.649231,813.690125 451.541901,814.879639 
	C467.619324,818.125000 483.884583,819.016357 500.152710,819.520996 
	C523.631653,820.249268 547.008423,818.526672 570.387329,816.037476 
	C579.358215,815.082336 583.556580,811.487854 585.974915,803.252197 
	C589.629272,790.807678 593.125610,778.243958 598.327942,766.330994 
	C611.878296,735.301453 627.455383,705.442505 646.646912,677.364136 
	C680.721130,627.511475 720.778931,583.608032 770.143311,548.553833 
	C783.689270,538.934753 780.984375,542.013855 779.548950,527.222046 
	C779.532959,527.056885 779.502686,526.892761 779.473022,526.729248 
	C771.843079,484.640686 761.104614,443.317139 748.975952,402.329193 
	C747.750488,398.187988 745.606934,395.920044 741.202881,395.114838 
	C717.068359,390.702148 692.647705,389.308563 668.222351,388.511963 
	C634.766663,387.420868 601.289001,386.591156 567.817871,386.474701 
	C499.011749,386.235260 430.197968,385.520630 361.408936,388.214020 
	C338.120636,389.125854 314.902252,390.663788 291.771057,393.433929 
	C277.615295,395.129150 277.687225,395.285431 273.587677,408.783295 
	C266.480682,432.183258 260.692963,455.916351 255.343704,480.621490 
M435.460876,367.637787 
	C442.449493,367.385834 449.436340,366.995850 456.427063,366.905029 
	C493.246643,366.426514 530.059021,367.308563 566.874207,367.507690 
	C600.696228,367.690643 634.482971,368.872284 668.272339,369.940033 
	C680.207642,370.317169 692.173096,371.058350 704.101074,372.393280 
	C715.002747,373.613342 725.846558,375.160004 736.713074,376.591217 
	C742.337708,377.332092 742.993713,376.602509 741.753296,371.173462 
	C739.716919,362.260742 737.491638,353.390594 735.517944,344.464478 
	C734.829041,341.348969 732.904114,340.010101 730.051880,339.545868 
	C712.316650,336.659210 694.490845,334.220184 676.552795,333.500977 
	C648.932739,332.393585 621.283936,331.908508 593.642456,331.459229 
	C570.326416,331.080261 547.003540,331.027069 523.683594,331.006012 
	C464.375153,330.952515 405.058380,330.711975 345.794098,333.464050 
	C328.506134,334.266846 311.469757,337.381500 294.591064,341.254608 
	C291.766174,341.902802 290.429596,343.240601 289.943359,346.171112 
	C288.693329,353.704956 287.112152,361.184052 285.649414,368.682343 
	C284.139740,376.421082 285.420990,377.759979 293.128174,376.485168 
	C307.069397,374.179199 321.071045,372.513947 335.182617,371.517822 
	C368.243042,369.184143 401.331055,367.804718 435.460876,367.637787 
M731.536926,626.057373 
	C744.906250,611.404846 759.188477,597.670715 773.750305,584.223816 
	C778.517883,579.821350 782.268982,574.909363 783.317566,568.301392 
	C783.534363,566.934998 783.815125,565.607056 782.466736,564.704102 
	C781.313599,563.931946 780.201843,564.495789 779.213989,565.136963 
	C776.144348,567.129272 772.978699,569.002991 770.075806,571.218262 
	C738.760071,595.115906 712.071655,623.680420 687.487366,654.232727 
	C664.997314,682.182495 645.550781,712.158630 629.026123,744.076965 
	C619.341797,762.782776 611.371826,782.085327 605.100952,802.142700 
	C604.610352,803.711853 603.649292,805.446655 604.904785,806.878174 
	C606.241577,808.402466 607.985474,807.182190 609.577332,806.943909 
	C613.002258,806.431152 614.624268,804.157043 615.781067,801.169617 
	C619.510132,791.539673 623.618408,782.068115 628.277100,772.850403 
	C655.439575,719.106567 690.941895,671.216919 731.536926,626.057373 
M404.924713,760.500305 
	C388.380096,720.643372 365.603088,684.669067 337.906982,651.631836 
	C310.238037,618.626953 279.524200,589.118347 242.745789,564.719421 
	C242.080826,571.726868 243.440292,576.228027 248.127838,580.029724 
	C258.987885,588.837341 269.905243,597.696228 279.317963,608.048523 
	C310.130432,641.936646 340.523041,676.209717 365.383118,714.886169 
	C382.238647,741.109436 397.871185,768.036255 408.133942,797.642822 
	C409.775055,802.377197 412.217407,804.866211 416.673462,806.097656 
	C418.270355,806.538879 419.940979,807.514709 421.381805,806.198853 
	C422.943329,804.772827 421.819061,803.054260 421.235138,801.568115 
	C415.941101,788.094177 410.596466,774.640076 404.924713,760.500305 
z"/>
<path fill="#000000" opacity="1.000000" stroke="none" 
	d="
M704.836670,211.832260 
	C699.303162,217.630661 693.885437,223.058685 688.778015,228.764496 
	C686.258301,231.579437 684.042786,230.830917 681.301880,229.431931 
	C678.505798,228.004837 677.581421,226.401047 678.458069,223.085052 
	C682.055420,209.478271 685.312988,195.781662 688.082336,181.872665 
	C681.525574,193.446594 674.869812,204.966263 668.476807,216.629959 
	C666.728577,219.819489 665.028381,220.492844 661.792114,218.772400 
	C649.089478,212.019562 650.791992,214.123291 657.007935,203.153198 
	C667.763000,184.172165 678.971680,165.448944 688.997070,146.058441 
	C689.367554,145.341980 689.908142,144.713486 690.794250,143.427567 
	C697.252625,147.017288 703.613770,150.518463 709.936462,154.087769 
	C711.904541,155.198807 711.089539,156.808212 710.626221,158.467117 
	C707.716614,168.885559 704.894104,179.328369 702.059570,189.767670 
	C701.631592,191.343948 700.854675,192.911636 701.713135,194.692413 
	C703.848267,194.591721 704.718323,192.777145 705.843201,191.481293 
	C712.613586,183.682571 719.395386,175.889633 725.962708,167.921097 
	C728.055603,165.381638 729.748657,164.743378 732.595764,166.741852 
	C736.953735,169.800842 741.505127,172.593521 746.057983,175.361847 
	C748.776367,177.014740 749.620544,178.526031 747.780640,181.738327 
	C736.110352,202.113770 724.622253,222.594543 713.226379,243.125076 
	C711.571594,246.106400 710.114746,246.294586 707.398193,244.594925 
	C694.028625,236.229996 694.641052,239.423416 702.480774,226.155380 
	C706.462830,219.416061 710.691772,212.822937 714.774292,206.142471 
	C715.873291,204.344238 717.251831,202.632965 717.235291,199.502045 
	C712.084656,202.968307 709.110474,207.838577 704.836670,211.832260 
z"/>
<path fill="#000000" opacity="1.000000" stroke="none" 
	d="
M252.768433,218.215759 
	C249.777206,214.836029 246.978546,211.757355 244.289001,208.586136 
	C242.310883,206.253723 242.371735,204.169327 245.209473,202.400070 
	C247.039413,201.259186 248.693329,199.834671 250.418198,198.526794 
	C257.068176,193.484421 255.844009,191.880508 262.173065,199.791916 
	C275.901550,216.952759 289.590607,234.145538 303.214844,251.389206 
	C307.296234,256.554871 306.895416,256.340057 301.977081,260.726410 
	C296.120026,265.949951 290.967224,266.710663 283.894775,262.286835 
	C273.058319,255.508560 261.460449,249.938309 249.015030,245.369461 
	C250.541565,247.123749 251.972229,248.973709 253.610901,250.616089 
	C261.488373,258.511414 269.329346,266.447571 277.389526,274.153503 
	C279.962952,276.613800 280.021606,278.339355 277.462830,280.676788 
	C264.961884,292.096527 268.900330,291.703857 257.944427,280.749329 
	C243.580475,266.387207 229.588028,251.653641 215.233704,237.281677 
	C211.772339,233.816086 211.990891,231.659653 215.539230,228.456436 
	C227.959045,217.244507 227.855484,217.153061 242.404877,224.807343 
	C251.064590,229.363144 259.753204,233.863968 269.195709,237.605789 
	C263.799744,231.229568 258.403778,224.853363 252.768433,218.215759 
z"/>
<path fill="#000000" opacity="1.000000" stroke="none" 
	d="
M400.353760,204.099609 
	C392.438751,201.742050 387.676025,196.172363 383.651825,189.966248 
	C375.040588,176.686081 370.936401,162.085846 372.837372,146.284241 
	C374.133301,135.512085 380.132782,127.579910 390.650299,124.279030 
	C402.303070,120.621841 413.357452,122.036324 421.492432,132.122406 
	C432.327942,145.556747 437.603729,161.074448 436.389282,178.429047 
	C436.103210,182.516922 438.234344,183.836990 441.258514,184.655411 
	C445.317749,185.753952 446.309723,187.949677 444.340210,191.600754 
	C444.184448,191.889511 444.127716,192.230713 444.015869,192.544281 
	C440.756622,201.681747 440.746460,201.703903 431.732483,197.672333 
	C429.973083,196.885437 428.368439,196.149750 426.846497,198.042267 
	C419.751770,206.864349 410.342438,205.931152 400.353760,204.099609 
M408.330627,180.085541 
	C409.829285,176.379089 409.627319,170.830872 416.844635,173.291687 
	C416.008057,160.227127 412.322021,148.949493 403.601501,139.789581 
	C399.836273,135.834656 395.149902,136.909409 392.550171,141.725967 
	C391.667725,143.360916 391.360016,145.136765 391.233063,146.991272 
	C390.270142,161.058517 396.019684,172.841476 403.815857,183.898727 
	C404.811462,185.310760 406.009796,186.910599 408.771393,186.528717 
	C407.775940,184.647675 407.381042,182.742523 408.330627,180.085541 
z"/>
<path fill="#000000" opacity="1.000000" stroke="none" 
	d="
M221.075302,331.997986 
	C203.760254,318.426971 186.761902,305.032288 169.686264,291.736847 
	C167.370834,289.933990 166.868164,288.433960 168.785110,286.009979 
	C173.430878,280.135498 177.649948,273.906586 182.513504,268.225006 
	C191.505142,257.721039 202.346497,254.930283 215.333328,259.736786 
	C228.515839,264.615753 239.329498,272.763947 246.743607,284.841339 
	C252.787109,294.686096 252.832123,304.879395 246.094467,314.367706 
	C241.192047,321.271545 235.533081,327.650024 230.047501,334.123840 
	C226.154953,338.717621 224.232437,333.024811 221.075302,331.997986 
M225.093948,310.144745 
	C226.929932,312.013214 228.222000,311.043182 229.562988,309.417572 
	C233.603226,304.519684 233.809830,299.066223 229.337708,294.047180 
	C223.103271,287.050323 215.705887,281.433594 207.118576,277.532684 
	C204.185928,276.200470 201.058319,275.680603 197.883453,276.479645 
	C195.133316,277.171783 193.147812,279.067902 192.119553,281.589172 
	C190.966660,284.416107 193.869034,285.258331 195.354446,286.462860 
	C205.022507,294.302734 214.819336,301.983856 225.093948,310.144745 
z"/>
<path fill="#000000" opacity="1.000000" stroke="none" 
	d="
M155.159912,341.674042 
	C169.662766,341.516052 182.030807,346.527863 193.198441,354.514313 
	C202.098206,360.878937 205.455795,370.030243 204.038940,380.784821 
	C202.861725,389.720551 199.959320,398.235748 197.031418,406.725311 
	C196.088867,409.458313 194.804611,411.002625 191.539520,409.674469 
	C169.513062,400.714813 146.630325,394.133301 124.439171,385.619598 
	C121.291603,384.412079 120.367882,382.931763 121.865166,379.669037 
	C125.331184,372.116180 128.348541,364.356842 131.837494,356.815216 
	C136.306671,347.154724 144.174438,342.343262 155.159912,341.674042 
M167.589142,380.826904 
	C172.105576,382.482086 176.642075,384.085144 181.131165,385.811432 
	C183.956085,386.897736 185.271515,386.186615 186.000076,383.090729 
	C187.287659,377.619354 186.029327,372.935089 181.588928,369.819489 
	C173.719482,364.298035 164.941498,360.976105 155.117233,361.121307 
	C150.894623,361.183716 148.043732,363.247162 145.877731,366.826965 
	C143.797974,370.264221 144.510529,372.282501 148.205627,373.627716 
	C154.438995,375.896973 160.630829,378.280304 167.589142,380.826904 
z"/>
<path fill="#000000" opacity="1.000000" stroke="none" 
	d="
M463.840576,147.420883 
	C464.408020,152.665268 464.819305,157.466660 465.359039,162.253540 
	C465.543488,163.889374 465.883453,165.549118 466.441010,167.093750 
	C468.211639,171.998901 471.784302,174.398148 476.305145,173.665573 
	C481.289917,172.857803 483.016022,169.113022 483.576660,164.744537 
	C484.283661,159.235870 482.967010,153.788345 482.395081,148.353439 
	C481.161438,136.630417 479.472656,124.952606 477.811768,113.278816 
	C477.289551,109.608665 478.552795,107.962410 482.235046,107.933922 
	C486.064606,107.904312 489.895782,107.783844 493.720856,107.594131 
	C495.899139,107.486107 497.087128,108.085686 497.329132,110.531975 
	C499.061218,128.041641 502.481995,145.387375 502.374817,163.075211 
	C502.274445,179.644348 492.455414,190.099915 476.155090,190.985199 
	C460.065613,191.859024 448.593079,182.135071 446.748138,166.089539 
	C444.868927,149.746170 442.996002,133.401947 441.041443,117.067535 
	C440.737274,114.525589 441.087646,112.813095 444.060944,112.536446 
	C446.204803,112.336975 448.321198,111.857628 450.462250,111.610756 
	C460.402344,110.464622 460.372742,110.480820 461.276825,120.684486 
	C462.053558,129.450836 462.912262,138.209900 463.840576,147.420883 
z"/>
<path fill="#000000" opacity="1.000000" stroke="none" 
	d="
M789.600342,291.800964 
	C785.521179,294.967468 781.695923,297.904236 777.932007,300.917572 
	C776.420227,302.127899 774.922302,303.386444 773.187012,301.519623 
	C769.596313,297.656830 766.115112,293.692230 762.259277,289.402740 
	C782.314575,273.912384 799.657898,256.238922 818.178955,239.698715 
	C822.988342,243.707611 826.538208,248.102722 830.287842,252.311646 
	C832.382446,254.662796 831.138550,256.101074 829.220276,257.610596 
	C823.254517,262.304993 817.332581,267.055115 810.292969,272.659943 
	C819.777283,269.962036 827.596497,266.709534 835.965271,265.203278 
	C839.760986,264.520111 841.989441,265.275726 843.676208,268.607788 
	C845.160889,271.540649 847.681702,273.910431 848.530884,277.097107 
	C847.818420,278.718384 846.364380,278.776306 845.143555,279.131012 
	C835.566650,281.913818 825.989929,284.699341 816.383972,287.379547 
	C813.732727,288.119324 812.419617,289.662415 811.389771,292.247437 
	C807.070374,303.089600 804.091248,314.357056 800.438110,325.407928 
	C799.823181,327.268097 799.440613,329.317047 797.458374,330.356354 
	C787.966492,325.090271 784.388489,316.942902 787.127502,306.857819 
	C788.749207,300.886871 791.382751,295.320740 794.369019,289.039673 
	C792.510437,290.100311 791.194702,290.851135 789.600342,291.800964 
z"/>
<path fill="#000000" opacity="1.000000" stroke="none" 
	d="
M738.346252,231.310669 
	C750.640747,221.861710 762.706299,212.701889 774.602112,203.326645 
	C777.027344,201.415268 778.627991,201.108978 780.935730,203.348236 
	C784.873718,207.169479 789.039307,210.759827 793.174683,214.372345 
	C794.918640,215.895874 795.307861,217.289551 794.197876,219.543640 
	C783.686584,240.889572 773.082520,262.186127 761.657227,283.062469 
	C761.119873,284.044189 760.250977,284.844421 759.293579,286.029785 
	C755.057434,283.322723 751.771362,279.791260 748.364136,276.465393 
	C746.299561,274.450043 748.272827,272.421539 749.181824,270.577911 
	C753.501343,261.817383 753.545471,261.807434 746.125488,255.538513 
	C738.543762,249.132965 740.625916,249.158783 733.237610,255.233459 
	C728.779907,258.898529 725.960022,259.207092 721.592590,255.225067 
	C714.751160,248.987457 714.515137,249.367416 722.221313,243.695572 
	C727.582153,239.749939 732.784302,235.588669 738.346252,231.310669 
M769.619385,227.180557 
	C763.789856,230.946396 758.403564,235.239929 753.327881,240.074188 
	C755.538635,242.897949 757.369263,245.220795 760.902954,246.433151 
	C764.326599,240.188278 769.025146,234.647934 769.619385,227.180557 
z"/>
<path fill="#000000" opacity="1.000000" stroke="none" 
	d="
M614.204102,185.730942 
	C616.699402,186.325562 618.834595,186.734558 620.885315,187.402771 
	C623.236816,188.168976 626.958984,187.349014 627.243469,190.905792 
	C627.575256,195.053070 626.305542,199.153137 624.346680,202.852295 
	C623.637146,204.192215 621.863831,203.574280 620.619263,203.300934 
	C610.230347,201.019241 599.866211,198.624466 589.474915,196.353943 
	C586.480530,195.699677 585.844421,194.161758 586.591614,191.295105 
	C592.757019,167.641403 598.862122,143.971756 604.885925,120.281631 
	C605.729919,116.962387 607.341614,116.052528 610.614563,116.922272 
	C620.738708,119.612617 630.891113,122.205093 641.078430,124.643501 
	C643.650452,125.259125 644.153870,126.375359 643.814575,128.846420 
	C642.190796,140.671753 641.872375,140.948318 630.264709,138.279495 
	C620.895081,136.125244 620.895081,136.125229 618.473083,145.392517 
	C616.684631,152.235657 616.714172,152.280487 623.959839,153.676407 
	C624.123169,153.707901 624.291260,153.715164 624.454529,153.746826 
	C635.471008,155.883270 635.373291,155.856003 632.334473,166.700272 
	C631.416260,169.977127 629.983276,171.106964 626.633911,170.031281 
	C623.478394,169.017868 620.185608,168.436752 616.963684,167.623825 
	C614.184021,166.922485 612.463501,167.846024 611.796082,170.710175 
	C611.154358,173.464447 610.482239,176.215805 609.692932,178.930496 
	C608.585205,182.740662 609.631958,185.129745 614.204102,185.730942 
z"/>
<path fill="#000000" opacity="1.000000" stroke="none" 
	d="
M813.929565,363.919739 
	C809.060913,355.365295 804.387329,347.115784 799.662109,338.895966 
	C798.415222,336.726929 797.287720,334.789978 800.477173,333.200562 
	C820.596741,323.174286 839.065002,310.207123 859.192871,300.182922 
	C862.058533,298.755737 863.813477,298.703735 865.616211,301.865051 
	C870.062622,309.662628 875.281311,317.036438 878.744141,325.368591 
	C880.999695,330.795898 880.480652,331.514954 874.766052,332.462891 
	C865.675354,333.970825 865.477600,334.060883 861.857788,326.108856 
	C859.883057,321.770630 857.739929,320.485107 853.701721,323.612488 
	C851.895569,325.011292 849.780273,326.010956 847.649719,327.284760 
	C848.859070,331.413208 851.120483,334.693878 853.097168,338.088440 
	C854.335876,340.215698 854.110352,341.501068 852.004150,343.024963 
	C841.742126,350.449921 841.793030,350.507751 835.561035,340.086273 
	C834.888306,338.961151 834.089417,337.911499 833.226257,336.646820 
	C828.942688,337.972687 825.393066,340.244324 822.193420,342.715668 
	C821.865356,344.373077 822.794678,345.235718 823.399353,346.186615 
	C825.059875,348.798065 827.950867,351.204437 826.337158,354.654907 
	C824.269470,359.076050 820.884827,362.595306 816.925598,365.449615 
	C815.698181,366.334503 814.790955,365.253571 813.929565,363.919739 
z"/>
<path fill="#000000" opacity="1.000000" stroke="none" 
	d="
M329.196930,175.979187 
	C337.077911,191.244934 344.692291,206.241440 352.586365,221.089249 
	C354.507874,224.703430 353.855652,226.710236 350.570862,228.856598 
	C339.243896,236.257843 339.248260,236.359634 332.810883,224.360687 
	C325.648407,211.010254 318.504089,197.648743 311.522186,184.203629 
	C309.597839,180.497955 307.540466,179.602432 304.263641,182.458847 
	C303.389343,183.221008 302.334106,183.771988 301.427765,184.501663 
	C298.359802,186.971664 295.982025,186.661713 293.491241,183.372726 
	C285.981842,173.456818 285.865997,173.412903 296.582977,167.383698 
	C306.595795,161.750626 316.733215,156.338394 326.726593,150.671707 
	C329.949066,148.844437 332.022003,149.351608 333.413116,152.749329 
	C333.475952,152.902817 333.561096,153.047699 333.641602,153.193405 
	C338.641235,162.240128 338.795624,162.508392 330.059662,167.532410 
	C325.434753,170.192169 327.433685,172.717255 329.196930,175.979187 
z"/>
<path fill="#000000" opacity="1.000000" stroke="none" 
	d="
M554.587524,147.674011 
	C555.187317,142.442856 555.546326,137.624329 556.389343,132.892044 
	C557.116516,128.810074 556.649597,126.004906 551.733215,125.744308 
	C550.423828,125.674904 549.136902,125.183708 547.839478,124.887154 
	C543.715637,123.944611 542.257202,121.630951 543.009033,117.278854 
	C544.620117,107.953026 544.470337,107.724518 553.942627,108.854897 
	C565.983887,110.291840 577.982971,112.083672 589.996277,113.750671 
	C590.797058,113.861778 591.961304,113.965538 592.284546,114.488243 
	C594.674683,118.352959 592.789307,122.193733 591.891846,125.987732 
	C591.259583,128.660248 589.625366,130.159454 586.598267,130.345596 
	C583.094116,130.561096 578.760132,127.063667 576.351685,130.723984 
	C574.532104,133.489349 574.856140,137.729370 574.431396,141.337234 
	C572.682434,156.192032 570.870178,171.042053 569.400330,185.925354 
	C568.970032,190.282196 567.157349,191.493286 563.018677,191.350586 
	C549.235352,190.875397 548.923157,190.422424 551.034851,176.801559 
	C552.509644,167.289047 553.403503,157.686447 554.587524,147.674011 
z"/>
<path fill="#000000" opacity="1.000000" stroke="none" 
	d="
M847.217041,448.235809 
	C840.878418,450.214355 840.840454,450.193939 839.464111,444.367157 
	C836.454590,431.625610 836.478760,431.719330 849.238098,428.427460 
	C862.602112,424.979553 875.880188,421.194855 889.267517,417.843384 
	C893.338196,416.824310 895.029480,415.059204 893.684387,410.941010 
	C893.530212,410.469025 893.394714,409.965912 893.387268,409.475128 
	C893.341003,406.408142 890.950623,402.493011 895.452026,400.851898 
	C900.617065,398.968811 905.946838,401.151215 907.409119,406.007751 
	C909.704651,413.631622 911.323730,421.460907 913.172241,429.216797 
	C913.942444,432.448090 914.529968,435.722534 915.266296,438.962402 
	C916.123901,442.736511 915.026367,444.584869 910.800659,444.456635 
	C904.296509,444.259247 901.464600,442.396057 899.414612,436.354431 
	C899.106445,435.446106 898.548767,434.622467 897.924438,433.404144 
	C881.235718,438.992432 864.032166,442.226044 847.217041,448.235809 
z"/>
<path fill="#000000" opacity="1.000000" stroke="none" 
	d="
M104.783218,443.016357 
	C105.451111,438.823425 106.200737,435.078094 106.709190,431.300293 
	C107.117058,428.269775 108.740753,427.306793 111.541069,427.936554 
	C135.488281,433.322144 159.432510,438.721039 183.378738,444.110931 
	C185.815857,444.659485 187.164261,445.720490 186.434067,448.611847 
	C185.419907,452.627563 184.747528,456.729828 183.935425,460.796326 
	C183.383652,463.559265 182.146698,464.616974 179.039993,463.831818 
	C156.040512,458.019135 133.020813,452.280304 109.737068,447.677979 
	C107.376175,447.211304 104.472488,447.142639 104.783218,443.016357 
z"/>
<path fill="#000000" opacity="1.000000" stroke="none" 
	d="
M532.331299,121.075027 
	C531.603394,142.002472 530.846130,162.440155 530.181519,182.880859 
	C530.082520,185.926453 529.093140,187.536179 525.767578,187.355774 
	C522.448730,187.175735 519.108582,187.189453 515.786255,187.325958 
	C512.328674,187.468048 510.854736,185.838379 511.046417,182.540985 
	C512.194641,162.789291 511.860107,142.978851 513.434387,123.241905 
	C513.751282,119.269287 513.725464,115.258415 513.650635,111.269058 
	C513.594788,108.288551 514.765808,106.991829 517.789124,107.186867 
	C521.602112,107.432831 525.425903,107.607101 529.245667,107.617722 
	C532.104736,107.625671 533.053894,108.817513 532.740967,111.625656 
	C532.410461,114.590881 532.452576,117.597633 532.331299,121.075027 
z"/>
<path fill="#000000" opacity="1.000000" stroke="none" 
	d="
M211.289001,354.742096 
	C191.683640,343.437073 172.422226,332.262085 153.066772,321.252441 
	C149.806686,319.398071 149.440292,317.721375 151.421646,314.581879 
	C159.391251,301.953857 159.312744,301.904785 171.990524,309.690308 
	C188.838364,320.036713 206.046936,329.787170 222.653610,340.538086 
	C226.122940,342.784058 226.787018,344.855438 224.386978,348.114197 
	C223.306168,349.581665 222.454056,351.215668 221.461212,352.750153 
	C217.727402,358.520935 217.721695,358.517242 211.289001,354.742096 
z"/>
<path fill="#000000" opacity="1.000000" stroke="none" 
	d="
M855.069702,383.939667 
	C867.592285,379.747498 879.771301,375.772430 891.875244,371.580872 
	C895.550415,370.308136 897.478333,370.510284 898.719360,374.898132 
	C902.376831,387.830353 902.572083,387.742554 889.840881,392.097748 
	C872.530273,398.019562 855.002808,403.326416 838.004700,410.133514 
	C833.994995,411.739227 831.859985,411.074585 829.995667,406.808380 
	C824.512451,394.260986 824.310852,394.345215 837.198608,389.976807 
	C843.028687,388.000732 848.864258,386.040863 855.069702,383.939667 
z"/>
<path fill="#000000" opacity="1.000000" stroke="none" 
	d="
M272.277100,198.717316 
	C271.484161,198.375336 271.000061,198.231125 270.558014,198.004868 
	C261.271606,193.251846 261.014313,190.497864 269.289703,184.570084 
	C270.912384,183.407715 272.520416,182.224869 274.144287,181.064148 
	C279.728424,177.072739 279.547546,177.214752 283.884033,182.869431 
	C290.587280,191.610275 291.931976,201.027039 288.589630,212.073730 
	C282.110443,208.387863 278.661346,201.983200 272.277100,198.717316 
z"/>
<path fill="#000000" opacity="1.000000" stroke="none" 
	d="
M851.870911,493.884094 
	C858.012024,490.372162 862.450134,490.648010 865.632996,494.451752 
	C868.656677,498.065308 868.340698,503.973389 864.922363,507.739014 
	C861.826721,511.149200 857.294312,512.101257 853.605164,510.116455 
	C849.902161,508.124207 847.751404,503.144226 849.058594,498.972839 
	C849.592407,497.269257 850.730225,495.754913 851.870911,493.884094 
z"/>
<path fill="#000000" opacity="1.000000" stroke="none" 
	d="
M861.254333,461.914734 
	C862.364197,463.471313 863.039856,464.765594 863.247009,466.310303 
	C863.916931,471.305359 861.011658,476.325256 856.492676,477.863403 
	C852.307739,479.287811 847.795532,477.689117 845.648193,474.020935 
	C843.315491,470.036041 844.110657,464.904114 847.555420,461.711975 
	C851.635132,457.931366 855.851868,457.895630 861.254333,461.914734 
z"/>
<path fill="#000000" opacity="1.000000" stroke="none" 
	d="
M433.178589,571.349731 
	C434.340759,547.104126 457.410919,536.175781 472.731384,534.674316 
	C479.207550,534.039612 485.677979,534.325989 492.108612,535.481323 
	C496.085602,536.195984 499.271423,534.322510 502.070374,531.820129 
	C504.426758,529.713440 506.733765,527.508179 508.781158,525.106567 
	C519.283203,512.787415 533.098450,510.975708 547.920349,512.925903 
	C555.987610,513.987366 560.864868,519.090210 563.223267,526.837097 
	C565.963501,535.838379 565.918030,545.222900 567.250549,554.414795 
	C568.091064,560.213562 570.668030,564.783936 575.412598,568.132263 
	C577.724487,569.763794 580.125183,571.270630 582.501770,572.809265 
	C601.739685,585.264099 605.643860,599.992004 597.531433,623.057129 
	C594.485840,631.716309 588.287720,637.977600 580.120911,642.217529 
	C578.790649,642.908142 577.490601,643.682007 576.103882,644.235229 
	C567.743286,647.570740 564.199707,653.864197 563.272644,662.692322 
	C561.259277,681.865112 549.946350,695.671448 535.576538,707.212219 
	C529.797058,711.853882 522.583496,713.074036 515.203735,712.273315 
	C510.564331,711.769897 506.607147,709.691162 503.604675,706.080566 
	C502.226929,704.423828 500.886078,702.648438 499.958527,700.720032 
	C495.476288,691.401306 487.935791,686.340942 477.983887,684.464783 
	C476.351410,684.157043 474.736511,683.745422 473.126221,683.332214 
	C452.693634,678.088257 450.287201,669.044250 448.725342,653.417053 
	C448.206543,648.226257 448.962158,643.140259 450.749969,638.197144 
	C452.277344,633.974060 453.357727,629.573792 455.096710,625.446106 
	C458.020508,618.506042 456.218079,612.802917 451.253387,607.684143 
	C449.165405,605.531433 447.203613,603.226562 444.931427,601.287354 
	C435.801727,593.495728 432.995758,583.237793 433.178589,571.349731 
z"/>
</svg>